<?xml version="1.0" encoding="utf-8"?>
<!-- Generator: Adobe Illustrator 16.0.0, SVG Export Plug-In . SVG Version: 6.00 Build 0)  -->
<!DOCTYPE svg PUBLIC "-//W3C//DTD SVG 1.1//EN" "http://www.w3.org/Graphics/SVG/1.1/DTD/svg11.dtd">
<svg version="1.1" id="Layer_1" xmlns="http://www.w3.org/2000/svg" xmlns:xlink="http://www.w3.org/1999/xlink" x="0px" y="0px"
	 width="1800px" height="1200px" viewBox="0 0 1800 1200" enable-background="new 0 0 1800 1200" xml:space="preserve">
<path fill="#EF65A5" d="M1799.199,566.086v664.138h-220.511c3.296-44.589-5.72-88.748-31.543-127.632
	c-37.637-56.682-104.226-91.616-174.114-111.342c-76.26-21.561-162.076-9.177-234.771-35.589
	c-31.65-11.489-59.949-33.287-69.343-62.003c-8.644-26.603-0.328-54.798,2.917-82.342c3.18-27.493-1.03-59.318-26.521-75.748
	c-26.302-16.997-63.025-10.358-94.679-2.966c-52.002,12.146-162.555,59.882-198.148-1.224
	c-24.467-41.992,29.646-84.837,46.449-129.655c17.819-47.692-10.913-101.643-56.44-132.337
	c-45.527-30.695-104.288-42.135-161.535-47.173c-43.369-3.813-87.763-4.616-128.865-17.139
	c-41.151-12.521-79.603-39.967-87.869-77.254c-16.686-75.278,89.168-128.477,109.256-203.097
	c12.531-46.466-11.933-95.899-52.385-128.618h259.99c-28.242,79.563-11.881,185.489,98.725,198.058
	c113.417,14.125,243.034-80.032,329.449,9.417c64.805,65.91-16.205,174.189,86.412,221.268
	c124.214,51.786,248.43-9.415,372.648-4.708c0.27,0,0.546,0,0.813,0.002c41.628,0.144,77.946,24.549,89.797,59.339
	C1690.271,571.454,1746.083,543.443,1799.199,566.086z"/>
<path fill="#D54A8F" d="M1799.199,941.914v288.31h-220.511c3.296-44.589-5.72-88.748-31.543-127.632
	c-37.637-56.682-104.226-91.616-174.114-111.342c-76.26-21.561-162.076-9.177-234.771-35.589
	c-31.65-11.489-59.949-33.287-69.343-62.003c-8.644-26.603-0.328-54.798,2.917-82.342c3.18-27.493-1.03-59.318-26.521-75.748
	c-26.302-16.997-63.025-10.358-94.679-2.966c-52.002,12.146-162.555,59.882-198.148-1.224
	c-24.467-41.992,29.646-84.837,46.449-129.655c17.819-47.692-10.913-101.643-56.44-132.337
	c-45.527-30.695-104.288-42.135-161.535-47.173c-43.369-3.813-87.763-4.616-128.865-17.139
	c-41.151-12.521-79.603-39.967-87.869-77.254c-16.686-75.278,89.168-128.477,109.256-203.097
	c12.531-46.466-11.933-95.899-52.385-128.618h146.09c7.129,47.078,3.614,97.547-4.861,125.042
	c-15.552,50.279-53.469,99.569-38.995,150.132c16.2,56.682,92.193,84.645,159.219,84.412
	c67.022-0.237,132.474-19.774,199.498-19.726c52.765,0.046,111.473,16.713,134.261,58.188c38.994,70.9-50.98,149.334-41.746,227.528
	c8.86,75.093,106.344,119.062,192.918,120.477c86.57,1.413,171.039-25.091,257.617-26.506
	c64.913-1.034,138.791,18.27,165.144,70.004c11.399,22.459,12.265,48.118,23.499,70.572c21.005,41.946,73.774,64.687,124.752,75.421
	C1758.53,935.887,1778.895,938.852,1799.199,941.914z"/>
<path fill="#EF65A5" d="M1118.625,969.611c0,0-136.562,10.031-305.02,10.031c-168.459,0-305.019-10.031-305.019-10.031
	s136.56-10.029,305.019-10.029C982.063,959.582,1118.625,969.611,1118.625,969.611z"/>
<g>
	<g>
		<rect x="963.515" y="333.691" fill="#19BBB7" width="399.907" height="259.608"/>
		<rect x="980.256" y="349.525" fill="#FFFFFF" width="366.429" height="227.94"/>
		<polygon fill="#353537" points="1316.438,546.969 1316.438,439.493 1296.231,439.493 1296.231,546.969 1283.247,546.969 
			1283.247,468.757 1263.039,468.757 1263.039,546.969 1250.057,546.969 1250.057,433.282 1229.848,433.282 1229.848,546.969 
			1216.869,546.969 1216.869,416.715 1196.662,416.715 1196.662,546.969 1183.678,546.969 1183.678,468.757 1163.471,468.757 
			1163.471,546.969 1147.812,546.969 1147.812,400.273 1143.377,400.273 1143.377,551.628 1331.323,551.628 1331.323,546.969 		"/>
		<rect x="1000.479" y="385.768" fill="#19BBB7" width="113.975" height="7.254"/>
		<rect x="1000.479" y="406.479" fill="#19BBB7" width="113.975" height="7.254"/>
		<rect x="1000.479" y="427.19" fill="#19BBB7" width="55.999" height="7.251"/>
		<g>
			<polygon fill="#19BBB7" points="1074.091,517.551 1074.091,538.263 1063.883,548.812 1044.332,548.812 1044.332,517.551 			"/>
			<polygon fill="#00A49F" points="1074.091,538.263 1063.883,548.812 1063.883,538.263 			"/>
		</g>
		<g>
			<g>
				<rect x="1001.623" y="517.551" fill="#EF65A5" width="29.759" height="31.261"/>
			</g>
		</g>
		<polygon fill="#19BBB7" points="1306.34,410.37 1289.177,414.898 1293.791,419.899 1272.987,441.075 1201.967,382.974 
			1166.601,410.837 1169.262,414.567 1201.92,388.84 1273.305,447.239 1296.873,423.244 1301.494,428.246 		"/>
		<g>
			<path fill="#563B97" d="M1041.164,477.422c0,11.801-9.105,21.369-20.34,21.369c-11.239,0-20.345-9.568-20.345-21.369
				c0-11.804,9.105-21.369,20.345-21.369C1032.059,456.053,1041.164,465.618,1041.164,477.422z"/>
			<g>
				<path fill="#FFFFFF" d="M1020.824,462.397c-7.9,0-14.302,6.728-14.302,15.024s6.401,15.024,14.302,15.024
					c7.901,0,14.303-6.728,14.303-15.024S1028.726,462.397,1020.824,462.397z M1018.262,464.565
					c-1.324,1.095-2.431,3.022-3.168,5.488c-1.229-0.462-2.321-1.07-3.229-1.786C1013.57,466.428,1015.779,465.109,1018.262,464.565
					z M1010.97,469.346c1.061,0.852,2.331,1.567,3.76,2.104c-0.364,1.592-0.586,3.362-0.628,5.242h-5.761
					C1008.484,473.93,1009.449,471.395,1010.97,469.346z M1008.341,478.152h5.761c0.046,1.935,0.278,3.754,0.66,5.386
					c-1.412,0.517-2.671,1.214-3.729,2.044C1009.471,483.519,1008.488,480.953,1008.341,478.152z M1011.935,486.655
					c0.907-0.693,1.987-1.282,3.202-1.729c0.737,2.399,1.823,4.274,3.125,5.352C1015.812,489.742,1013.627,488.453,1011.935,486.655
					z M1020.129,489.71c-1.49-0.47-2.808-2.437-3.654-5.206c1.139-0.303,2.367-0.494,3.654-0.541V489.71z M1020.129,482.5
					c-1.413,0.055-2.768,0.266-4.033,0.611c-0.345-1.51-0.558-3.191-0.602-4.959h4.635V482.5z M1020.129,476.691h-4.635
					c0.044-1.711,0.247-3.34,0.574-4.81c1.272,0.35,2.633,0.571,4.061,0.621V476.691z M1020.129,471.044
					c-1.305-0.052-2.549-0.246-3.703-0.561c0.847-2.846,2.186-4.87,3.703-5.352V471.044z M1033.306,476.691h-5.758
					c-0.049-1.88-0.266-3.65-0.625-5.245c1.424-0.534,2.695-1.249,3.754-2.101C1032.206,471.395,1033.158,473.93,1033.306,476.691z
					 M1029.783,468.268c-0.913,0.715-1.999,1.323-3.225,1.786c-0.742-2.466-1.848-4.393-3.172-5.488
					C1025.869,465.109,1028.082,466.428,1029.783,468.268z M1021.52,465.131c1.518,0.482,2.855,2.506,3.701,5.352
					c-1.158,0.315-2.401,0.509-3.701,0.561V465.131z M1021.52,472.502c1.424-0.05,2.788-0.271,4.061-0.621
					c0.326,1.47,0.529,3.099,0.578,4.81h-4.639V472.502z M1021.52,478.152h4.639c-0.049,1.768-0.266,3.449-0.61,4.959
					c-1.264-0.345-2.615-0.557-4.028-0.611V478.152z M1021.52,489.71v-5.747c1.286,0.047,2.515,0.238,3.659,0.541
					C1024.327,487.273,1023.009,489.24,1021.52,489.71z M1023.387,490.278c1.3-1.075,2.387-2.953,3.13-5.352
					c1.21,0.447,2.294,1.036,3.196,1.729C1028.02,488.456,1025.835,489.742,1023.387,490.278z M1030.616,485.583
					c-1.059-0.828-2.312-1.525-3.726-2.044c0.378-1.631,0.608-3.451,0.657-5.386h5.758
					C1033.158,480.953,1032.177,483.519,1030.616,485.583z"/>
			</g>
		</g>
		<g>
			<ellipse fill="#E34932" cx="1070.109" cy="477.422" rx="20.047" ry="21.059"/>
			<path fill="#FFFFFF" d="M1081.914,474.566h-2.49c-0.198-0.718-0.468-1.403-0.804-2.046l1.759-1.848
				c0.481-0.509,0.481-1.336,0-1.845l-2.084-2.192c-0.488-0.51-1.272-0.51-1.761,0l-1.759,1.845
				c-0.609-0.353-1.267-0.633-1.946-0.842v-2.617c0-0.72-0.559-1.304-1.243-1.304h-2.951c-0.686,0-1.244,0.583-1.244,1.304v2.617
				c-0.685,0.209-1.338,0.489-1.948,0.842l-1.759-1.845c-0.486-0.51-1.271-0.51-1.759,0l-2.085,2.192
				c-0.486,0.509-0.486,1.336,0,1.845l1.753,1.848c-0.334,0.644-0.599,1.329-0.798,2.046h-2.491c-0.687,0-1.24,0.586-1.24,1.306v3.1
				c0,0.723,0.554,1.306,1.24,1.306h2.491c0.199,0.715,0.464,1.405,0.798,2.046l-1.753,1.848c-0.486,0.509-0.486,1.336,0,1.845
				l2.085,2.193c0.488,0.509,1.272,0.509,1.759,0l1.759-1.848c0.61,0.353,1.264,0.636,1.948,0.845v2.615
				c0,0.723,0.559,1.306,1.244,1.306h2.951c0.685,0,1.243-0.583,1.243-1.306v-2.615c0.68-0.209,1.337-0.492,1.946-0.845l1.759,1.848
				c0.488,0.509,1.272,0.509,1.761,0l2.084-2.193c0.481-0.509,0.481-1.336,0-1.845l-1.759-1.848
				c0.336-0.641,0.605-1.331,0.804-2.046h2.49c0.688,0,1.24-0.583,1.24-1.306v-3.1
				C1083.154,475.152,1082.602,474.566,1081.914,474.566z M1070.11,482.89c-2.875,0-5.21-2.448-5.21-5.468
				c0-3.022,2.335-5.468,5.21-5.468c2.873,0,5.204,2.446,5.204,5.468C1075.314,480.442,1072.983,482.89,1070.11,482.89z"/>
		</g>
		<g>
			<g>
				<rect x="1104.843" y="459.611" fill="#353537" width="8.35" height="8.769"/>
				<rect x="1118.397" y="459.611" fill="#353537" width="8.346" height="8.769"/>
			</g>
			<g>
				<rect x="1104.843" y="473.036" fill="#353537" width="8.35" height="8.769"/>
				<rect x="1118.397" y="473.036" fill="#EF65A5" width="8.346" height="8.769"/>
			</g>
			<g>
				<rect x="1104.843" y="486.466" fill="#EF65A5" width="8.35" height="8.766"/>
				<rect x="1118.397" y="486.466" fill="#EF65A5" width="8.346" height="8.766"/>
			</g>
		</g>
	</g>
	<g>
		<g>
			<path fill="#563B97" d="M1414.405,538.042c0,0-36.762,30.995-68.274,19.976s-43.744-73.421-43.744-73.421s7.059-12.745,0-17.14
				c0,0,1.414-10.547-5.641-11.426c-7.054-0.876-34.808,7.91-6.586,30.765c0,0,7.995,112.5,68.67,116.456
				c60.671,3.957,59.915-12.106,59.915-12.106L1414.405,538.042z"/>
			<path fill="#F4EED8" d="M1302.387,484.596c0,0,1.518-2.756,2.439-6.142c0,0,0.005,0,0.005-0.002
				c6.501-2.098,3.112-19.549,0.246-22.479c-2.119-2.168-5.088-0.698-6.496,0.216c-1.424-2.923-9.103-18.238-13.344-16.833
				c-3.129,1.041,0.024,11.483,2.454,18.288c-9.119,3.5-17.896,12.663,2.469,29.15c0,0,0.869,12.238,4.213,28.782
				c5.29-1.187,10.463-2.883,15.483-5.073C1304.689,496.323,1302.387,484.596,1302.387,484.596z"/>
		</g>
		<polygon fill="#F4EED8" points="1485.479,653.846 1458.98,689.18 1464.773,696.172 1499.651,666.838 		"/>
		<path fill="#563B97" d="M1432.736,529.23c0,0,42.755,4.621,52.372,19.375c9.612,14.756,44.321,54.366,40.662,84.658
			c-3.659,30.287-19.962,39.221-19.962,39.221l-20.33-18.639c0,0,13.304-11.262,11.086-22.525
			c-2.217-11.262-31.791-41.163-31.791-41.163l-23.287-48.931L1432.736,529.23z"/>
		<g>
			<g>
				<g>
					<g>
						<g>
							<path fill="#EF65A5" d="M1526.039,962.914c0,0-56.041,8.363-125.182,8.363c-69.133,0-125.176-8.363-125.176-8.363
								s56.043-8.367,125.176-8.367C1469.998,954.547,1526.039,962.914,1526.039,962.914z"/>
							<path fill="#FFFFFF" d="M1453.931,942.902l1.112,7.125l1.531,9.689l-38.681,10.104c-2.188,0.574-3.891-2.033-2.571-3.951
								c1.844-2.668,4.521-5.391,7.376-7.896c6.852-5.979,14.737-10.762,14.737-10.762L1453.931,942.902z"/>
							<path fill="#FFFFFF" d="M1387.039,942.902l-0.436,7.205l-0.577,9.803l-39.853,0.744c-2.251,0.039-3.356-2.904-1.66-4.463
								c2.364-2.168,5.557-4.188,8.875-5.957c7.954-4.213,16.657-7.014,16.657-7.014L1387.039,942.902z"/>
							<path fill="#111116" d="M1460.361,691.566c0,0-4.902,64.025-18.264,121.006l13.616,133.23l-21.356,2.291
								c0,0-22.046-87.473-28.439-108.02c-7.178-23.072,0-80.125,0-80.125s-18.879,43.756-18.879,64.809
								c0,21.061,2.236,118.555,2.236,118.555s-14.241,4.154-21.357,0c-7.115-4.156-12.652-129.918-12.652-129.918l27.678-136.344
								C1382.943,677.051,1420.021,687.416,1460.361,691.566z"/>
						</g>
						<path fill="#563B97" d="M1470.301,696.301c1.105-13.482,5.063-103.285-0.252-123.415
							c-11.861-44.977-37.313-43.655-37.313-43.655c-7.787,19.015-24.109,6.156-24.109,6.156s-28.656,18.243-19.163,68.094
							c6.123,32.178-6.303,61.646-15.887,78.508C1401.739,702.502,1438.277,707.475,1470.301,696.301z"/>
						<path fill="#FFFFFF" d="M1406.803,536.866c0,0-10.288,6.452-10.351,12.204c-0.066,5.75,6.832,14.811,6.832,14.811
							l10.109-12.169l9.777,14.756c0,0,31.461-25.36,10.77-39.285C1413.25,513.26,1406.803,536.866,1406.803,536.866z"/>
						<g>
							<path fill="#F4EED8" d="M1387.872,485.47c0,0-7.698,44.915,15.71,44.45c23.409-0.462,32.1-18.141,30.459-28.762
								c-1.645-10.619-3.003-31.72-23.073-34.293C1390.896,464.29,1387.872,485.47,1387.872,485.47z"/>
							<path fill="#111116" d="M1454.643,475.51c-1.548-3.216-4.451-5.401-7.316-7.391c0.02-0.025,0.038-0.047,0.042-0.082
								c0.072-2.039-0.303-4.09-1.066-5.963c-0.81-1.964-2.039-3.705-3.405-5.289c0.34,2.416,0.528,5.389,0.01,7.775
								c-1.013-2.506-2.067-5.081-3.925-6.986c-1.282-1.319-2.889-2.24-4.51-3.044c-7.405-3.659-15.778-5.126-23.915-4.194
								c-1.857,0.215-3.713,0.549-5.574,0.444c-1.867-0.104-3.788-0.702-5.103-2.096c0.938,2.556,2.403,5.605,4.454,7.289
								c-17.377,6.291-14.851,23.89-14.851,23.89c5.659-2.3,11.546,0.695,11.546,0.695c-0.633,16.44,28.382,24.241,28.382,24.241
								c4.294-4.312,10.208-1.741,10.208-1.741c3.456,2.499,3.451,5.521,3.451,5.521c6.578-4.982,8.167-30.077,8.167-30.077
								c1.688-0.479,3.526-0.347,5.134,0.368C1455.619,477.864,1455.188,476.647,1454.643,475.51z"/>
							<path fill="#F4EED8" d="M1427.804,511.184c0.682,4.43,4.657,7.438,8.875,6.717s7.078-4.895,6.392-9.322
								c-0.684-4.431-4.655-7.438-8.874-6.718C1429.98,502.581,1427.119,506.755,1427.804,511.184z"/>
							<path fill="#F4EED8" d="M1432.367,508.797l0.941,6.087c0,0,0.122,1.107,0.25,2.886c0.189,2.342,0.406,5.841,0.382,9.414
								c-0.022,5.543-0.59,11.294-2.623,13.276c-4.346,4.242-20.875,5.059-23.188,3.956c-0.728-0.348-1.129-3.459-1.327-7.55
								c-0.1-2.19-0.162-4.639-0.172-7.109c0,0,0,0,0.01-0.003c-0.047-7.485,0.231-15.007,0.231-15.007L1432.367,508.797z"/>
							<path fill="#EBE0BE" d="M1433.559,517.77c0.189,2.342,0.406,5.841,0.382,9.414c-6.529,3.167-19.752,9.162-27.138,9.683
								c-0.1-2.19-0.162-4.639-0.172-7.109c0,0,0,0,0.01-0.003C1407.388,529.593,1430.655,524.579,1433.559,517.77z"/>
						</g>
					</g>
				</g>
			</g>
		</g>
	</g>
	<g>
		<path fill="#19BBB7" d="M1502.54,333.562h-87.113c-4.748,0-8.604,4.033-8.604,9.02v65.37c0,4.989,3.856,9.022,8.604,9.022h4.689
			v22.622l21.532-22.622h60.892c4.749,0,8.602-4.033,8.602-9.022v-65.37C1511.142,337.595,1507.289,333.562,1502.54,333.562z"/>
		<g>
			<rect x="1418.93" y="346.436" fill="#FFFFFF" width="80.108" height="7.471"/>
			<rect x="1418.93" y="363.166" fill="#FFFFFF" width="80.108" height="7.47"/>
			<rect x="1418.93" y="379.899" fill="#FFFFFF" width="80.108" height="7.47"/>
			<rect x="1418.93" y="396.63" fill="#FFFFFF" width="43.074" height="7.47"/>
		</g>
	</g>
</g>
<g>
	<g>
		<path fill="#353537" d="M1023.637,848.477h-99.54c-3.867,0-7.002-3.289-7.002-7.354l0,0c0-4.064,3.135-7.352,7.002-7.352h99.54
			c3.868,0,7.007,3.287,7.007,7.352l0,0C1030.644,845.188,1027.505,848.477,1023.637,848.477z"/>
		<g>
			<rect x="966.999" y="860.021" fill="#EBE0BE" width="13.521" height="71.795"/>
			<rect x="963.515" y="848.477" fill="#F4EED8" width="20.704" height="27.961"/>
		</g>
		<g>
			<g>
				<rect x="933.047" y="928.471" fill="#353537" width="81.641" height="9.014"/>
				<g>
					<path fill="#EBE0BE" d="M945.014,945.232c0,4.271-3.305,7.74-7.376,7.74c-4.066,0-7.37-3.469-7.37-7.74
						c0-4.279,3.304-7.748,7.37-7.748C941.709,937.484,945.014,940.953,945.014,945.232z"/>
					<path fill="#EBE0BE" d="M1017.468,945.232c0,4.271-3.301,7.74-7.376,7.74c-4.066,0-7.366-3.469-7.366-7.74
						c0-4.279,3.3-7.748,7.366-7.748C1014.167,937.484,1017.468,940.953,1017.468,945.232z"/>
				</g>
			</g>
		</g>
	</g>
	<g>
		<path fill="#563B97" d="M1068.493,819.311c-0.988-21.746-54.218-26.926-54.218-26.926c-2.341,0-24.756,0.15-42.638,0.264
			c-17.878-0.113-40.297-0.264-42.633-0.264c0,0-53.23,5.18-54.218,26.926c-0.988,21.746,27.11,135.053,27.11,135.053h23.163
			c0,0,1.972-113.307-3.942-117.445c0,0,28.571-0.498,50.52-2.496c21.952,1.998,50.524,2.496,50.524,2.496
			c-5.915,4.139-3.943,117.445-3.943,117.445h23.162C1041.381,954.363,1069.482,841.057,1068.493,819.311z"/>
		<g>
			<g>
				<path fill="#353537" d="M922.357,954.369l-0.521,6.588l-0.147,1.957l-0.534,6.988h-36.463c-2.051,0-3.026-2.701-1.452-4.1
					c0.521-0.453,1.083-0.902,1.675-1.35c1.924-1.43,4.197-2.77,6.539-3.961c7.347-3.715,15.346-6.123,15.346-6.123H922.357z"/>
			</g>
			<path fill="#FFFFFF" d="M921.689,962.914l-0.534,6.988h-36.463c-2.051,0-3.026-2.701-1.452-4.1
				c0.521-0.453,1.083-0.902,1.675-1.35C893.018,964.918,905.648,964.98,921.689,962.914z"/>
		</g>
		<g>
			<g>
				<path fill="#353537" d="M1023.027,954.369l0.512,6.588l0.149,1.957l0.53,6.988h36.467c2.054,0,3.031-2.701,1.447-4.1
					c-0.516-0.453-1.077-0.902-1.669-1.35c-1.925-1.43-4.202-2.77-6.538-3.961c-7.349-3.715-15.348-6.123-15.348-6.123H1023.027z"/>
			</g>
			<path fill="#FFFFFF" d="M1023.688,962.914l0.53,6.988h36.467c2.054,0,3.031-2.701,1.447-4.1c-0.516-0.453-1.077-0.902-1.669-1.35
				C1052.36,964.918,1039.732,964.98,1023.688,962.914z"/>
		</g>
	</g>
</g>
<g>
	<path fill="#19BBB7" d="M1023.688,792.623l-0.833,0.404c-34.509,17.432-74.552,18.109-109.577,1.898
		c0,0,2.634-40.885,10.559-89.676c3.489-21.496,8.028-44.518,13.807-66.279l0.046-0.018c0.028-0.012,0.043-0.012,0.071-0.031
		c1.262-0.51,2.534-0.99,3.819-1.443c16.426-5.73,34.171-5.744,50.587-0.076c1.386,0.484,2.762,1.01,4.136,1.568
		C1015.258,710.063,1023.688,792.623,1023.688,792.623z"/>
	<g>
		<path fill="#00A49F" d="M937.689,638.953l-0.046,0.018c-5.778,21.762-10.317,44.783-13.807,66.279
			c-8.714,6.803-19.642,16.512-21.428,23.811c-0.993,4.012,3.087,7.363,9.063,10.08l-5.471,20.211h-12.363
			c0,0-25.934-8.311-24.453-30.799c1.475-22.492,42.107-70.941,47.905-79.484C919.945,644.871,929.113,641.395,937.689,638.953z"/>
		<path fill="#F4EED8" d="M945.014,759.352v-11.631c0,0-20.973-2.865-33.541-8.582l-5.471,20.213H945.014z"/>
	</g>
	<g>
		<path fill="#00A49F" d="M995.845,638.953l0.458,0.018c5.784,21.762,9.91,44.783,13.4,66.279
			c8.709,6.803,19.637,16.512,21.424,23.811c0.992,4.012-3.088,7.363-9.064,10.08l5.476,20.211h12.358
			c0,0,25.939-8.311,24.454-30.799c-1.476-22.492-42.108-70.941-47.905-79.484C1013.59,644.871,1004.421,641.395,995.845,638.953z"
			/>
		<path fill="#F4EED8" d="M988.521,759.352v-11.631c0,0,20.975-2.865,33.542-8.582l5.476,20.213H988.521z"/>
	</g>
	<rect x="920.257" y="688.582" fill="#353537" width="102.771" height="70.77"/>
	<g>
		<path fill="#F4EED8" d="M992.167,637.402c-1.139,7.375-5.665,21.762-23.678,21.762c-17.968,0-24.662-14.293-26.909-21.686
			c1.564-0.541,3.149-1.037,4.743-1.475c13.683-3.822,28.08-3.773,41.73,0.111C989.43,636.5,990.807,636.938,992.167,637.402z"/>
		<g>
			<path fill="#EBE0BE" d="M988.054,636.115c-4.865,5.512-13.22,13.092-22.401,13.338c-10.691,0.283-16.842-8.711-19.329-13.449
				C960.006,632.182,974.403,632.23,988.054,636.115z"/>
			<g>
				<ellipse fill="#F4EED8" cx="966.724" cy="610.877" rx="26" ry="34.502"/>
				<path fill="#F4EED8" d="M949.411,617.354c0,4.498-3.476,8.15-7.754,8.15c-4.289,0-7.76-3.652-7.76-8.15
					c0-4.5,3.471-8.15,7.76-8.15C945.936,609.203,949.411,612.854,949.411,617.354z"/>
				<path fill="#F4EED8" d="M1000.479,617.354c0,4.498-3.472,8.15-7.756,8.15c-4.288,0-7.757-3.652-7.757-8.15
					c0-4.5,3.469-8.15,7.757-8.15C997.008,609.203,1000.479,612.854,1000.479,617.354z"/>
				<path fill="#563B97" d="M995.589,609.779c-0.325,2.594-4.529,2.783-3.927,5.322c-0.691-2.113-1.954-5.133-3.514-6.654
					c-0.034-6.047-4.45-11.756-10.076-13.027c-4.085-0.924-8.322,0.298-12.491,0.074c-4.898-0.263-9.67-2.61-12.992-6.395
					c-5.788,7.51-10.181,16.943-10.342,26.605c-0.751-2.469-2.52-4.141-4.751-5.23c0,0-6.383-22.242,2.122-26.771
					c0,0-3.573-11.004,10.473-13.072c14.043-2.071,38.567,4.788,42.633-4.92c0,0,5.667,15.792,0,19.547
					C992.724,585.258,998.705,585.114,995.589,609.779z"/>
			</g>
		</g>
	</g>
</g>
<path fill="#F2674C" d="M706.718,608.063c0.467-10.783,6.733-20.99,5.376-31.69c-2.449-19.224-28.841-31.35-45.147-25.859
	c-5.846,1.972-10.094,6.519-12.963,11.973c-4.752,5.54-8.45,12.064-10.228,19.278c-1.711,6.941-0.652,13.902-0.376,20.949
	c0.097,2.438-0.014,4.781-0.291,7.057c-1.03,2.121-2.273,4.156-3.855,6.047c-2.834,3.396-6.546,5.865-9.556,9.092
	c-3.824,4.109-6.393,9.318-8.528,14.609c-3.053,7.555-5.349,16.082-2.913,23.879c2.413,7.725,9.02,13.178,15.876,16.945
	c12.913,7.1,27.951,9.852,42.388,7.75c8.931-1.295,17.922-4.604,24.319-11.285c6.267-6.553,9.487-15.824,10.324-25.072
	c0.822-9.25-0.544-18.559-2.37-27.652C707.709,618.793,706.479,613.463,706.718,608.063z M645.198,604.375
	c0.009-3.227-0.158-6.531-0.373-9.904c-0.636-9.931,1.896-18.248,6.484-25.512c-0.165,0.532-0.324,1.065-0.47,1.602
	C647.836,581.525,648.443,593.778,645.198,604.375z"/>
<g>
	<g>
		<g>
			<path fill="#F4EED8" d="M601.825,861.273c-21.385-2.543-35.572-11.572-42.164-26.848
				c-19.049-44.146,33.596-124.617,35.847-128.018l6.07,4.43c-0.525,0.795-52.512,80.242-35.181,120.385
				c5.441,12.607,17.642,20.117,36.259,22.33L601.825,861.273z"/>
		</g>
		<path fill="#353537" d="M653.009,756.914h-58.974c-10.428,0-18.882-8.877-18.882-19.832v-42.119
			c0-10.951,8.454-19.834,18.882-19.834h58.974V756.914z"/>
		<path fill="#353537" d="M681.696,865.408h-99.54c-3.867,0-7.002-3.289-7.002-7.352l0,0c0-4.064,3.136-7.355,7.002-7.355h99.54
			c3.869,0,7.003,3.291,7.003,7.355l0,0C688.699,862.119,685.564,865.408,681.696,865.408z"/>
	</g>
	<g>
		<g>
			<path fill="#563B97" d="M632.912,850.031c0,0,51.72,2.486,67.983,0L685.373,954.42h20.191c0,0,43.39-125.514,28.604-141.043
				c-14.79-15.533-61.365-13.824-61.365-13.824l-42.882,23.145L632.912,850.031z"/>
			<g>
				<path fill="#353537" d="M688.699,954.363l0.51,6.584l0.679,8.959h36.465c2.067,0,3.027-2.709,1.451-4.109
					c-2.193-1.939-5.144-3.734-8.208-5.299c-7.338-3.721-15.346-6.135-15.346-6.135H688.699z"/>
				<path fill="#F4EED8" d="M688.699,954.363l0.51,6.584c2.362,1.346,4.946,2.268,7.583,2.854c4.204,0.934,8.544,1.033,12.852,0.988
					c3.853-0.027,7.811-1.057,9.952-4.291c-7.338-3.721-15.346-6.135-15.346-6.135H688.699z"/>
			</g>
		</g>
		<path fill="#00A49F" d="M697.5,618.984c0,0,11.039,4.887,15.965,27.672c4.926,22.779,8.873,77.664,8.873,77.664l36.44,12.557
			l0.524,17.473l-73.93,3.832l1.974-67.518L697.5,618.984z"/>
		<g>
			<g>
				<path fill="#353537" d="M791.658,925.496l2.33,6.133l3.159,8.352l34.851-11.275c1.971-0.639,2.137-3.527,0.236-4.375
					c-2.644-1.178-5.967-1.982-9.334-2.531c-8.051-1.283-16.382-1.111-16.382-1.111L791.658,925.496z"/>
				<path fill="#F4EED8" d="M791.658,925.496l2.33,6.133c2.634,0.553,5.362,0.635,8.054,0.379c4.273-0.406,8.442-1.654,12.557-3.023
					c3.669-1.223,7.162-3.426,8.302-7.186c-8.051-1.283-16.382-1.111-16.382-1.111L791.658,925.496z"/>
			</g>
			<path fill="#654DA0" d="M603.849,780.375c0,0-12.865,57.342,18.68,67.947c31.544,10.609,120.823-30.113,120.823-30.113
				l44.835,108.328l21.693-6.213c0,0-25.637-138.031-42.392-139.949c-16.757-1.92-69.988,0-69.988,0H603.849z"/>
		</g>
		<path fill="#19BBB7" d="M697.5,780.365l-8.197,1.555l-23.375,4.457l-69.231,13.176c0,0,28.832-83.227,30.683-94.133
			c1.85-10.902,2.1-40.865,0.13-55.482c-1.98-14.617,19.906-30.959,19.906-30.959H697.5c0.128,0.156,0.263,0.324,0.396,0.498
			C723.833,651.414,697.5,780.365,697.5,780.365z"/>
		<path fill="#563B97" d="M689.303,781.92l-23.375,4.457c15.215-107.287-9.019-167.398-9.019-167.398H697.5
			c0.128,0.156,0.263,0.324,0.396,0.498C712.858,639.563,693.091,759.814,689.303,781.92z"/>
		<path fill="#F4EED8" d="M656.909,618.984c0,0,14.54,23.51,30.31,18.328c15.775-5.176,10.281-18.328,10.281-18.328H656.909z"/>
		<g>
			<path fill="#F4EED8" d="M775.568,750.527c-3.664-3.396-11.025-12.902-16.79-13.65c-2.784-0.363-20.448,7.066-20.448,7.066
				s-30.397-1.418-58.541-3.475l-1.448,17.826c19.797-0.307,42.405-0.834,61.174-1.564c13.954,4.023,28.289,0.547,35.131-1.693
				C776.537,754.434,777.029,751.902,775.568,750.527z"/>
			<path fill="#00A49F" d="M647.42,618.984c0,0-25.139,8.514-30.561,39.58c-5.419,31.063-2.462,103.551,6.409,108.73
				c8.873,5.176,62.105-2.588,62.105-2.588v-25.373l-35.617-2.07C649.756,737.264,670.092,637.912,647.42,618.984z"/>
		</g>
	</g>
	<g>
		<rect x="625.058" y="876.955" fill="#EBE0BE" width="13.523" height="71.793"/>
		<rect x="621.574" y="865.408" fill="#F4EED8" width="20.703" height="27.961"/>
	</g>
	<g>
		<g>
			<rect x="591.104" y="945.406" fill="#353537" width="81.646" height="9.014"/>
			<g>
				<path fill="#EBE0BE" d="M603.07,962.164c0,4.279-3.3,7.742-7.371,7.742c-4.07,0-7.371-3.463-7.371-7.742s3.3-7.744,7.371-7.744
					C599.77,954.42,603.07,957.885,603.07,962.164z"/>
				<path fill="#EBE0BE" d="M675.527,962.164c0,4.279-3.304,7.742-7.375,7.742c-4.069,0-7.368-3.463-7.368-7.742
					s3.299-7.744,7.368-7.744C672.223,954.42,675.527,957.885,675.527,962.164z"/>
			</g>
		</g>
	</g>
</g>
<g>
	<rect x="692.245" y="759.352" fill="#F2674C" width="493.136" height="11.346"/>
	<rect x="705.925" y="770.697" fill="#E34932" width="465.777" height="12.73"/>
</g>
<g>
	<polygon fill="#353537" points="726.759,979.922 746.462,783.428 731.668,783.428 717.602,979.922 	"/>
	<polygon fill="#353537" points="1160.029,979.922 1145.953,783.428 1131.164,783.428 1150.864,979.922 	"/>
</g>
<g>
	<rect x="716.051" y="751.701" fill="#353537" width="58.004" height="7.65"/>
	<polygon fill="#353537" points="847.185,759.352 754.174,759.352 768.969,688.582 861.983,688.582 	"/>
</g>
<g>
	<path fill="#F4EED8" d="M704.964,579.303c0,0,5.655,37.715-13.915,36.881c-19.574-0.832-26.537-15.79-24.979-24.64
		c1.558-8.854,3.057-26.476,19.888-28.249C702.793,561.524,704.964,579.303,704.964,579.303z"/>
	<path fill="#F4EED8" d="M671.113,600.049c-0.648,3.693-4.026,6.129-7.541,5.449c-3.514-0.684-5.835-4.23-5.188-7.922
		c0.65-3.69,4.026-6.129,7.541-5.449C669.442,592.81,671.763,596.356,671.113,600.049z"/>
	<path fill="#F2674C" d="M661.366,593.025c0,0,4.992-2.039,8.511,1.652c0,0,24.406-5.972,24.16-19.735c0,0,4.979-2.394,9.671-0.362
		c0,0-4.309-22.75-32.063-14.98c-27.745,7.77-13.26,37.976-13.26,37.976S658.431,595.047,661.366,593.025z"/>
	<path fill="#F4EED8" d="M667.337,597.965l-0.894,5.074c0,0-0.121,0.924-0.259,2.41c-0.196,1.955-0.442,4.877-0.485,7.863
		c-0.073,4.643,0.301,9.465,1.97,11.158c3.56,3.635,17.371,4.633,19.328,3.75c0.615-0.275,1.004-2.869,1.243-6.287
		c0.119-1.83,0.208-3.877,0.266-5.945c0,0,0,0-0.02,0c0.175-6.262,0.068-12.56,0.068-12.56L667.337,597.965z"/>
	<path fill="#EBE0BE" d="M666.184,605.449c-0.196,1.955-0.442,4.877-0.485,7.863c5.41,2.777,16.366,8.043,22.541,8.621
		c0.119-1.83,0.208-3.877,0.266-5.945c0,0,0,0-0.02,0C687.869,615.834,668.496,611.199,666.184,605.449z"/>
</g>
<g>
	<path fill="#563B97" d="M796.226,439.468h-87.111c-4.747,0-8.603,4.033-8.603,9.025v65.367c0,4.989,3.855,9.02,8.603,9.02h4.691
		v22.621l21.531-22.621h60.889c4.751,0,8.604-4.031,8.604-9.02v-65.367C804.83,443.501,800.977,439.468,796.226,439.468z"/>
	<polygon fill="#FFFFFF" points="792.722,458.576 770.018,465.31 776.349,471.787 764.565,484.504 740.986,466.369 713.909,496.367 
		718.198,500.641 741.691,474.613 765.223,492.707 780.594,476.123 786.925,482.6 	"/>
</g>
<g>
	<ellipse fill="#FFFFFF" cx="878.441" cy="360.689" rx="42.154" ry="42.653"/>
	<g>
		<g>
			<path fill="#563B97" d="M878.442,397.458c-1.448,0-2.91-0.087-4.339-0.258l0.344-2.917c2.659,0.324,5.41,0.319,8.059-0.009
				l0.353,2.917C881.403,397.369,879.917,397.458,878.442,397.458z M865.595,395.095c-2.738-1.044-5.345-2.427-7.758-4.114
				l1.643-2.415c2.221,1.549,4.63,2.821,7.139,3.784L865.595,395.095z M891.358,395.069l-1.03-2.744
				c2.51-0.967,4.909-2.246,7.121-3.798l1.652,2.413C896.693,392.628,894.09,394.02,891.358,395.069z M851.272,385.113
				c-1.944-2.216-3.623-4.664-4.992-7.276l2.571-1.371c1.257,2.406,2.797,4.657,4.593,6.696L851.272,385.113z M905.651,385.063
				l-2.171-1.948c1.791-2.044,3.331-4.3,4.579-6.708l2.57,1.366C909.271,380.393,907.596,382.843,905.651,385.063z M843.163,369.557
				c-0.7-2.864-1.057-5.821-1.062-8.792l2.9-0.005c0.01,2.737,0.334,5.457,0.983,8.09L843.163,369.557z M913.735,369.483
				l-2.817-0.699c0.636-2.634,0.961-5.356,0.961-8.096l2.903-0.143v0.143C914.782,363.663,914.427,366.623,913.735,369.483z
				 M845.947,352.66l-2.817-0.693c0.688-2.873,1.73-5.666,3.085-8.294l2.569,1.361C847.539,347.452,846.583,350.019,845.947,352.66z
				 M910.881,352.465c-0.649-2.641-1.619-5.201-2.887-7.609l2.566-1.377c1.373,2.619,2.432,5.403,3.136,8.273L910.881,352.465z
				 M853.356,338.317l-2.177-1.943c1.941-2.218,4.139-4.204,6.542-5.894l1.656,2.411
				C857.166,334.449,855.137,336.272,853.356,338.317z M903.394,338.165c-1.797-2.033-3.833-3.847-6.047-5.387l1.64-2.422
				c2.411,1.673,4.62,3.642,6.573,5.853L903.394,338.165z M866.49,329.081l-1.04-2.741c2.739-1.056,5.595-1.776,8.504-2.138
				l0.353,2.911C871.635,327.448,869.005,328.109,866.49,329.081z M890.198,329.011c-2.519-0.96-5.155-1.603-7.832-1.922
				l0.338-2.915c2.91,0.345,5.775,1.047,8.514,2.087L890.198,329.011z"/>
		</g>
	</g>
	<g>
		<g>
			<polygon fill="#563B97" points="887.66,380.179 875.58,367.953 875.58,338.165 881.383,338.165 881.383,365.524 891.764,376.027 
							"/>
		</g>
	</g>
</g>
<g>
	<polygon fill="#F4EED8" points="935.477,507.155 935.477,527.869 925.269,538.419 905.714,538.419 905.714,507.155 	"/>
	<polygon fill="#EBE0BE" points="935.477,527.869 925.269,538.419 925.269,527.869 	"/>
</g>
<g>
	<g>
		<rect x="863.01" y="476.855" fill="#FFFFFF" width="29.764" height="31.261"/>
	</g>
</g>
<path fill="#EF65A5" d="M1260.454,282.273c0,14.815-11.433,26.825-25.536,26.825s-25.541-12.01-25.541-26.825
	c0-14.819,11.438-26.831,25.541-26.831S1260.454,267.454,1260.454,282.273z"/>
<path fill="#D54A8F" d="M1319.341,1057.807c0,14.818-11.431,26.828-25.54,26.828c-14.1,0-25.535-12.01-25.535-26.828
	s11.436-26.83,25.535-26.83C1307.91,1030.977,1319.341,1042.988,1319.341,1057.807z"/>
<path fill="#EF65A5" d="M1217.527,225.056c0,9.126-7.05,16.526-15.735,16.526c-8.69,0-15.739-7.4-15.739-16.526
	c0-9.132,7.049-16.532,15.739-16.532C1210.478,208.524,1217.527,215.924,1217.527,225.056z"/>
<path fill="#D54A8F" d="M1253.088,1016.045c0,9.135-7.045,16.533-15.735,16.533s-15.735-7.398-15.735-16.533
	c0-9.125,7.045-16.523,15.735-16.523S1253.088,1006.92,1253.088,1016.045z"/>
<g>
	<g>
		<path fill="#FFFFFF" d="M909.818,610.465l1.219,4.518l1.226-4.518c1.021-3.811,3.465-7.023,6.77-8.924l0,0l0,0
			c-3.305-1.899-5.749-5.113-6.77-8.923l-1.226-4.517l-1.219,4.517c-1.027,3.81-3.471,7.023-6.777,8.923l0,0l0,0
			C906.348,603.441,908.791,606.654,909.818,610.465z"/>
		<path fill="#FFFFFF" d="M898.517,628.785l0.941,3.49l0.945-3.49c0.795-2.945,2.682-5.432,5.239-6.902l0,0l0,0
			c-2.558-1.471-4.444-3.955-5.239-6.9l-0.945-3.492l-0.941,3.492c-0.793,2.945-2.68,5.43-5.233,6.9l0,0l0,0
			C895.837,623.354,897.724,625.84,898.517,628.785z"/>
	</g>
</g>
<g>
	<g>
		<path fill="#FFFFFF" d="M1489.297,492.722l1.217,4.518l1.223-4.518c1.032-3.809,3.467-7.023,6.776-8.922l0,0l0,0
			c-3.31-1.9-5.744-5.114-6.776-8.923l-1.223-4.52l-1.217,4.52c-1.03,3.809-3.47,7.023-6.773,8.923l0,0l0,0
			C1485.827,485.699,1488.267,488.913,1489.297,492.722z"/>
		<path fill="#FFFFFF" d="M1477.998,511.039l0.941,3.494l0.94-3.494c0.8-2.945,2.685-5.431,5.243-6.898l0,0l0,0
			c-2.559-1.471-4.443-3.956-5.243-6.901l-0.94-3.494l-0.941,3.494c-0.8,2.945-2.682,5.431-5.239,6.901l0,0l0,0
			C1475.316,505.608,1477.198,508.094,1477.998,511.039z"/>
	</g>
</g>
<g>
	<g>
		<path fill="#FFFFFF" d="M1325.408,660.521l-1.57,5.811l-1.563-5.811c-1.326-4.898-4.465-9.035-8.716-11.475l0,0l0,0
			c4.251-2.443,7.39-6.578,8.716-11.479l1.563-5.811l1.57,5.811c1.323,4.9,4.467,9.035,8.719,11.479l0,0l0,0
			C1329.875,651.486,1326.731,655.623,1325.408,660.521z"/>
		<path fill="#FFFFFF" d="M1339.947,684.09l-1.216,4.492l-1.21-4.492c-1.021-3.793-3.45-6.988-6.742-8.879l0,0l0,0
			c3.292-1.893,5.721-5.088,6.742-8.879l1.21-4.492l1.216,4.492c1.021,3.791,3.45,6.986,6.737,8.879l0,0l0,0
			C1343.397,677.102,1340.969,680.297,1339.947,684.09z"/>
	</g>
</g>
<g>
	<g>
		<path fill="#D54A8F" d="M742.704,606.02l-1.275,3.313l-1.274-3.313c-1.075-2.791-3.629-5.146-7.084-6.538l0,0l0,0
			c3.455-1.393,6.009-3.748,7.084-6.539l1.274-3.311l1.275,3.311c1.074,2.791,3.628,5.146,7.082,6.539l0,0l0,0
			C746.333,600.873,743.778,603.229,742.704,606.02z"/>
		<path fill="#D54A8F" d="M754.521,619.442l-0.989,2.563l-0.987-2.563c-0.828-2.157-2.802-3.979-5.476-5.057l0,0l0,0
			c2.673-1.075,4.648-2.896,5.476-5.054l0.987-2.563l0.989,2.563c0.83,2.157,2.802,3.979,5.476,5.054l0,0l0,0
			C757.323,615.464,755.351,617.285,754.521,619.442z"/>
	</g>
</g>
</svg>
